#!OML:ASF H:\SpeedWalk\Project 1\Capture day 2\Session 1\male.ASF
:FULLY-SPECIFIED
:DEGREES
1
root -7.733500 17.408600 -23.999400 4.655530 3.462255 8.815328
lowerback 6.252150 -0.893626 -9.998430 
upperback -0.841564 -1.950910 0.375245 
thorax -4.064470 -0.731535 6.203600 
lowerneck -13.395700 0.831994 1.870480 
upperneck 16.524100 1.509040 -4.076820 
head 7.324940 0.464745 -1.485670 
rclavicle 0.000000 0.000000 
rhumerus -32.387700 -24.164600 -76.396400 
rradius 28.022100 
rwrist 0.953091 
rhand -12.490500 -10.720000 
rfingers 0.000000 
rthumb 13.584300 -40.256800 
lclavicle 0.000000 0.000000 
lhumerus -37.810900 6.790230 86.376700 
lradius 35.571000 
lwrist -13.658400 
lhand -7.206530 15.907900 
lfingers 0.000000 
lthumb 18.672200 45.031800 
rfemur -37.449500 -0.821240 10.403500 
rtibia 31.147500 
rfoot -7.420150 -9.883140 
rtoes -1.994310 
lfemur 13.130300 -4.390010 -31.983600 
ltibia 13.225000 
lfoot -17.425500 -2.644020 
ltoes -12.285100 
2
root -7.757182 17.419199 -23.811328 4.630364 3.429103 8.484769
lowerback 6.189272 -0.892679 -9.619388 
upperback -0.873835 -1.910784 0.483366 
thorax -4.076467 -0.717602 6.099408 
lowerneck -13.424942 0.842228 1.902781 
upperneck 16.589398 1.524902 -4.112703 
head 7.352396 0.470202 -1.501579 
rclavicle 0.000000 0.000000 
rhumerus -32.704726 -24.678839 -76.012762 
rradius 27.638196 
rwrist 1.346500 
rhand -12.548587 -10.701086 
rfingers 0.000000 
rthumb 13.528290 -40.241662 
lclavicle 0.000000 0.000000 
lhumerus -38.060100 7.010701 86.307855 
lradius 35.291266 
lwrist -13.844450 
lhand -7.275476 15.766042 
lfingers 0.000000 
lthumb 18.605907 44.896256 
rfemur -37.211654 -0.712689 10.933330 
rtibia 31.698117 
rfoot -6.463744 -9.917206 
rtoes -1.314433 
lfemur 12.923227 -4.636160 -31.548021 
ltibia 14.738460 
lfoot -17.126542 -2.868059 
ltoes -14.761812 
3
root -7.768768 17.426012 -23.717297 4.606513 3.400314 8.289498
lowerback 6.169341 -0.886945 -9.392643 
upperback -0.889992 -1.882003 0.543033 
thorax -4.091150 -0.706720 6.031744 
lowerneck -13.440031 0.848234 1.918422 
upperneck 16.631568 1.534411 -4.130185 
head 7.369376 0.473611 -1.509203 
rclavicle 0.000000 0.000000 
rhumerus -32.867157 -24.952524 -75.808105 
rradius 27.430273 
rwrist 1.560200 
rhand -12.580060 -10.695062 
rfingers 0.000000 
rthumb 13.498000 -40.237664 
lclavicle 0.000000 0.000000 
lhumerus -38.187061 7.125906 86.268894 
lradius 35.142010 
lwrist -13.947764 
lhand -7.308650 15.675903 
lfingers 0.000000 
lthumb 18.573984 44.809157 
rfemur -37.071293 -0.664597 11.230829 
rtibia 31.944438 
rfoot -6.095748 -9.917786 
rtoes -1.071049 
lfemur 12.751225 -4.749186 -31.299729 
ltibia 15.625723 
lfoot -16.953751 -2.998719 
ltoes -16.072354 
4
root -7.780259 17.433330 -23.622953 4.578010 3.366356 8.086860
lowerback 6.156528 -0.878767 -9.155683 
upperback -0.906432 -1.849876 0.604285 
thorax -4.110803 -0.694186 5.959857 
lowerneck -13.457948 0.854634 1.932812 
upperneck 16.677630 1.544841 -4.147656 
head 7.388163 0.477314 -1.516553 
rclavicle 0.000000 0.000000 
rhumerus -33.031169 -25.235234 -75.594759 
rradius 27.212645 
rwrist 1.786654 
rhand -12.604489 -10.682129 
rfingers 0.000000 
rthumb 13.474444 -40.226270 
lclavicle 0.000000 0.000000 
lhumerus -38.317376 7.243559 86.228485 
lradius 34.991768 
lwrist -14.058483 
lhand -7.334380 15.584321 
lfingers 0.000000 
lthumb 18.549207 44.719947 
rfemur -36.917805 -0.628946 11.539994 
rtibia 32.180522 
rfoot -5.800316 -9.888079 
rtoes -0.880243 
lfemur 12.542700 -4.854295 -31.042329 
ltibia 16.580094 
lfoot -16.757193 -3.146984 
ltoes -17.380680 
5
root -7.791635 17.441245 -23.528241 4.544016 3.326297 7.875526
lowerback 6.152118 -0.867704 -8.906662 
upperback -0.923207 -1.813800 0.667411 
thorax -4.136324 -0.679701 5.882985 
lowerneck -13.479206 0.861499 1.945725 
upperneck 16.728287 1.556358 -4.165115 
head 7.409081 0.481366 -1.523580 
rclavicle 0.000000 0.000000 
rhumerus -33.197047 -25.528602 -75.371158 
rradius 26.983559 
rwrist 2.028167 
rhand -12.620602 -10.661041 
rfingers 0.000000 
rthumb 13.458840 -40.206143 
lclavicle 0.000000 0.000000 
lhumerus -38.451650 7.364100 86.186365 
lradius 34.840363 
lwrist -14.177945 
lhand -7.351324 15.491036 
lfingers 0.000000 
lthumb 18.532868 44.628245 
rfemur -36.748817 -0.607983 11.862930 
rtibia 32.404519 
rfoot -5.590555 -9.822616 
rtoes -0.751514 
lfemur 12.291056 -4.950056 -30.774177 
ltibia 17.613693 
lfoot -16.532573 -3.316033 
ltoes -18.686389 
6
root -7.802778 17.449609 -23.432825 4.495560 3.277051 7.668110
lowerback 6.156839 -0.851807 -8.657456 
upperback -0.936569 -1.772006 0.727910 
thorax -4.164164 -0.662502 5.802813 
lowerneck -13.493784 0.868601 1.958582 
upperneck 16.779809 1.568465 -4.183288 
head 7.429150 0.485700 -1.530777 
rclavicle 0.000000 0.000000 
rhumerus -33.367158 -25.835314 -75.134614 
rradius 26.742183 
rwrist 2.290479 
rhand -12.629709 -10.637476 
rfingers 0.000000 
rthumb 13.450047 -40.183150 
lclavicle 0.000000 0.000000 
lhumerus -38.589847 7.485290 86.141522 
lradius 34.686639 
lwrist -14.304659 
lhand -7.362172 15.398544 
lfingers 0.000000 
lthumb 18.522438 44.536753 
rfemur -36.550386 -0.612180 12.190515 
rtibia 32.620836 
rfoot -5.479909 -9.691710 
rtoes -0.663747 
lfemur 11.994743 -5.028045 -30.507651 
ltibia 18.738373 
lfoot -16.252391 -3.522769 
ltoes -19.919816 
7
root -7.813815 17.458176 -23.337093 4.440601 3.223675 7.462456
lowerback 6.165667 -0.833735 -8.408165 
upperback -0.948398 -1.727641 0.787229 
thorax -4.193047 -0.644081 5.721157 
lowerneck -13.505357 0.875811 1.971415 
upperneck 16.831719 1.580839 -4.201783 
head 7.448836 0.490160 -1.538050 
rclavicle 0.000000 0.000000 
rhumerus -33.539173 -26.148026 -74.892251 
rradius 26.495281 
rwrist 2.562145 
rhand -12.635666 -10.612797 
rfingers 0.000000 
rthumb 13.444317 -40.158868 
lclavicle 0.000000 0.000000 
lhumerus -38.729807 7.606773 86.095455 
lradius 34.531871 
lwrist -14.434634 
lhand -7.370280 15.306410 
lfingers 0.000000 
lthumb 18.514666 44.445356 
rfemur -36.338716 -0.627691 12.520190 
rtibia 32.833698 
rfoot -5.413832 -9.531377 
rtoes -0.594400 
lfemur 11.678343 -5.098042 -30.241857 
ltibia 19.904009 
lfoot -15.947225 -3.746450 
ltoes -21.120739 
8
root -7.824520 17.467082 -23.240984 4.371371 3.169240 7.282111
lowerback 6.183146 -0.814888 -8.183172 
upperback -0.953804 -1.684658 0.841016 
thorax -4.219036 -0.626261 5.647484 
lowerneck -13.524441 0.885045 1.979195 
upperneck 16.892109 1.597119 -4.219133 
head 7.472746 0.496099 -1.543774 
rclavicle 0.000000 0.000000 
rhumerus -33.709314 -26.468626 -74.635794 
rradius 26.237655 
rwrist 2.862647 
rhand -12.623782 -10.573208 
rfingers 0.000000 
rthumb 13.455798 -40.118522 
lclavicle 0.000000 0.000000 
lhumerus -38.873975 7.725876 86.052788 
lradius 34.387412 
lwrist -14.567067 
lhand -7.361210 15.234285 
lfingers 0.000000 
lthumb 18.523378 44.372394 
rfemur -36.090732 -0.681270 12.831019 
rtibia 33.043190 
rfoot -5.456000 -9.292792 
rtoes -0.534817 
lfemur 11.302804 -5.140974 -29.991347 
ltibia 21.169721 
lfoot -15.539587 -4.048343 
ltoes -22.108544 
